<svg width="100%" height="100%" viewBox="0 0 88 98" fill="none" xmlns="http://www.w3.org/2000/svg">
<circle cx="44" cy="43" r="43" fill="white"/>
<path d="M43.9987 7.125C24.1964 7.125 8.125 23.1964 8.125 42.9987C8.125 62.8009 24.1964 78.8723 43.9987 78.8723C63.8009 78.8723 79.8723 62.8009 79.8723 42.9987C79.8723 23.1964 63.8009 7.125 43.9987 7.125ZM58.3481 46.586H47.586V57.3481C47.586 59.3212 45.9717 60.9355 43.9987 60.9355C42.0256 60.9355 40.4113 59.3212 40.4113 57.3481V46.586H29.6492C27.6761 46.586 26.0618 44.9717 26.0618 42.9987C26.0618 41.0256 27.6761 39.4113 29.6492 39.4113H40.4113V28.6492C40.4113 26.6761 42.0256 25.0618 43.9987 25.0618C45.9717 25.0618 47.586 26.6761 47.586 28.6492V39.4113H58.3481C60.3212 39.4113 61.9355 41.0256 61.9355 42.9987C61.9355 44.9717 60.3212 46.586 58.3481 46.586Z" fill="#9A0000"/>
</svg>
